<?xml version="1.0" encoding="UTF-8"?>
<svg id="Layer_2" data-name="Layer 2" xmlns="http://www.w3.org/2000/svg" viewBox="0 0 483.44 39.13">
  <defs>
    <style>
      .cls-1 {
        fill: #e31b6d;
      }
    </style>
  </defs>
  <g id="Layer_1-2" data-name="Layer 1">
    <g>
      <path class="cls-1" d="m23.68,37.86L5.52,10.43v27.43H0V1.21h6.29l17.33,26.66V1.21h5.52v36.65h-5.46Z"/>
      <path class="cls-1" d="m34.38,37.86V1.21h5.91v36.65h-5.91Z"/>
      <path class="cls-1" d="m68.93,37.86l-11.92-17.61-5.68,5.68v11.92h-5.85V1.21h5.85v17.61L68.16,1.21h7.67l-14.63,14.68,14.9,21.97h-7.17Z"/>
      <path class="cls-1" d="m106.62,37.86l-2.81-8.22h-15.51l-3.04,8.22h-6.24L92.77,1.21h6.73l13.52,36.65h-6.4Zm-10.6-30.19l-6.13,17.11h12.2l-6.07-17.11Z"/>
      <path class="cls-1" d="m161.64,37.86V10.04l-8.89,27.82h-5.91l-8.83-27.76v27.76h-5.52V1.21h8.72l8.72,29.2,8.72-29.2h8.5v36.65h-5.52Z"/>
      <path class="cls-1" d="m172.51,37.86V1.21h26.27v4.97h-20.53v9.99h19.04v4.97h-19.04v11.7h21.41v5.02h-27.15Z"/>
      <path class="cls-1" d="m226.1,37.86v-9.49c0-3.81-1.44-5.57-6.68-5.57h-9.99v15.07h-5.74V1.21h18.1c6.68,0,10.98,4.36,10.98,10.27,0,4.36-2.32,7.78-6.35,8.83,3.92.83,5.41,2.87,5.41,7.34v10.21h-5.74Zm-5.63-19.87c4.91,0,6.79-2.65,6.79-5.96,0-3.53-2.04-5.91-6.4-5.91h-11.42v11.87h11.04Z"/>
      <path class="cls-1" d="m237.36,37.86V1.21h26.27v4.97h-20.53v9.99h19.04v4.97h-19.04v11.7h21.41v5.02h-27.15Z"/>
      <path class="cls-1" d="m268.54,37.86V1.21h17.33c7.17,0,10.76,3.97,10.76,9.33,0,4.47-2.54,6.73-5.13,7.51,2.98.88,6.24,3.26,6.24,9.05,0,6.68-4.36,10.76-13.36,10.76h-15.84Zm5.68-31.73v9.99h11.09c3.7,0,5.63-1.77,5.63-5.08s-1.77-4.91-6.13-4.91h-10.6Zm10.6,26.93c4.69,0,7.17-2.59,7.17-6.46s-2.59-5.69-6.57-5.69h-11.2v12.14h10.6Z"/>
      <path class="cls-1" d="m326.54,37.86l-2.81-8.22h-15.51l-3.04,8.22h-6.24l13.74-36.65h6.73l13.52,36.65h-6.4Zm-10.6-30.19l-6.13,17.11h12.2l-6.07-17.11Z"/>
      <path class="cls-1" d="m357.39,12.03c-.22-4.69-3.04-7.01-8.67-7.01-5.3,0-7.89,2.04-7.89,5.52,0,2.59,1.44,3.86,3.59,4.8,3.86,1.66,8.17,1.55,12.36,2.98,4.03,1.38,7.17,3.97,7.17,9.49,0,7.29-5.41,11.31-14.24,11.31s-15.01-3.97-15.18-12.25h5.68c.11,4.8,3.86,7.51,9.49,7.51,5.3,0,8.5-2.37,8.5-6.4,0-2.32-1.05-3.92-3.86-5.02-3.48-1.38-7.78-1.32-12.09-2.93-4.69-1.77-6.84-4.58-6.84-9.11,0-6.4,4.36-10.93,13.14-10.93s14.29,4.69,14.4,12.03h-5.57Z"/>
      <path class="cls-1" d="m391.33,37.86v-17.16h-17.11v17.16h-5.91V1.21h5.91v14.52h17.11V1.21h5.96v36.65h-5.96Z"/>
      <path class="cls-1" d="m414.29,37.86l-12.92-36.65h6.29l9.44,28.2,9.44-28.2h6.13l-12.91,36.65h-5.46Z"/>
      <path class="cls-1" d="m436.91,37.86V1.21h5.91v36.65h-5.91Z"/>
      <path class="cls-1" d="m448,37.86V1.21h5.91v31.51h19.32v5.13h-25.22Z"/>
      <path class="cls-1" d="m477.53,37.86V1.21h5.91v36.65h-5.91Z"/>
    </g>
  </g>
</svg>